PathFileType	4	(X/Y/Z)	C:\Users\u0093377\Documents\Projects\3-Antoinne\AdDB\\TRC\AdDB_StairUp_3_TRC.trc
DataRate	CameraRate	NumFrames	NumMarkers	Units	OrigDataRate	OrigDataStartFrame	OrigNumFrames
100.000000	100.000000	4	61	m	100.000000	166	440
Frame#	Times		LFHD		RFHD		LBHD		RBHD		C7		T10		CLAV		STRN		RBAK		LSHO		LUA1		LUA2		LUA3		LELB		LLA1		LLA2		LLA3		LWRA		LWRB		LFIN		RSHO		RUA1		RUA2		RUA3		RELB		RLA1		RLA2		RLA3		RWRA		RWRB		RFIN		LASI		RASI		SACR		RPSI		LPSI		LTHI		LTHI2		LTHI3		LKNE		LTIB		LTIB2		LTIB3		LANK		LHEE		LTOE		LLatFoot		RTHI		RTHI2		RTHI3		RKNE		RTIB		RTIB2		RTIB3		RANK		RHEE		RTOE		RLatFoot		Pelvis1		Pelvis2		Pelvis3
			X1	Y1	Z1	X2	Y2	Z2	X3	Y3	Z3	X4	Y4	Z4	X5	Y5	Z5	X6	Y6	Z6	X7	Y7	Z7	X8	Y8	Z8	X9	Y9	Z9	X10	Y10	Z10	X11	Y11	Z11	X12	Y12	Z12	X13	Y13	Z13	X14	Y14	Z14	X15	Y15	Z15	X16	Y16	Z16	X17	Y17	Z17	X18	Y18	Z18	X19	Y19	Z19	X20	Y20	Z20	X21	Y21	Z21	X22	Y22	Z22	X23	Y23	Z23	X24	Y24	Z24	X25	Y25	Z25	X26	Y26	Z26	X27	Y27	Z27	X28	Y28	Z28	X29	Y29	Z29	X30	Y30	Z30	X31	Y31	Z31	X32	Y32	Z32	X33	Y33	Z33	X34	Y34	Z34	X35	Y35	Z35	X36	Y36	Z36	X37	Y37	Z37	X38	Y38	Z38	X39	Y39	Z39	X40	Y40	Z40	X41	Y41	Z41	X42	Y42	Z42	X43	Y43	Z43	X44	Y44	Z44	X45	Y45	Z45	X46	Y46	Z46	X47	Y47	Z47	X48	Y48	Z48	X49	Y49	Z49	X50	Y50	Z50	X51	Y51	Z51	X52	Y52	Z52	X53	Y53	Z53	X54	Y54	Z54	X55	Y55	Z55	X56	Y56	Z56	X57	Y57	Z57	X58	Y58	Z58	X59	Y59	Z59	X60	Y60	Z60	X61	Y61	Z61

166	1.66	-0.1208	1.7289	-0.10998	-0.13622	1.7395	0.041372	-0.26237	1.7699	-0.12298	-0.27997	1.7777	0.0083844	-0.3871	1.6659	-0.061179	-0.50886	1.433	-0.069187	-0.26773	1.5592	-0.04975	-0.26405	1.3995	-0.048272	-0.47907	1.5968	0.016341	-0.32642	1.5963	-0.25845	-0.32102	1.4107	-0.27969	-0.3795	1.4279	-0.31709	-0.35392	1.3797	-0.31612	-0.40917	1.2547	-0.34585	-0.32516	1.1633	-0.34888	-0.39092	1.1454	-0.36698	-0.34124	1.1109	-0.36884	-0.27752	1.0188	-0.31119	-0.33482	1.0068	-0.36186	-0.27437	0.94459	-0.36902	-0.35562	1.6089	0.14896	-0.38594	1.4259	0.17786	-0.44571	1.4591	0.19727	-0.43579	1.4001	0.20677	-0.48613	1.2919	0.23929	-0.4305	1.2228	0.25662	-0.49932	1.2069	0.25842	-0.45519	1.1699	0.26983	-0.37136	1.0473	0.22989	-0.4205	1.033	0.28692	-0.34762	0.9968	0.30364	-0.33073	1.1597	-0.14439	-0.34681	1.1878	0.06218	-0.52633	1.2037	-0.057707	-0.52742	1.2211	-0.015877	-0.51728	1.2099	-0.10933	-0.36419	0.87411	-0.21513	-0.47136	0.86768	-0.2148	-0.41382	0.79422	-0.21554	-0.43385	0.65399	-0.19099	-0.48415	0.42955	-0.20394	-0.5524	0.44096	-0.21041	-0.52509	0.39036	-0.20225	-0.56046	0.23396	-0.18695	-0.61626	0.21398	-0.14678	-0.41443	0.19594	-0.17051	-0.50287	0.19168	-0.19465	-0.26584	1.0677	0.1366	-0.33972	0.98398	0.15202	-0.24628	0.97863	0.15896	-0.10217	0.82518	0.13715	-0.13347	0.59833	0.13731	-0.19979	0.62292	0.15102	-0.18693	0.56294	0.14655	-0.23373	0.40807	0.1348	-0.27926	0.38776	0.08054	-0.095131	0.3662	0.15892	-0.18913	0.3598	0.1576	-0.3882	1.2186	0.10112	-0.46209	1.2119	0.10795	-0.41126	1.17	0.13739
167	1.67	-0.11547	1.7294	-0.10712	-0.13084	1.7399	0.04423	-0.25716	1.7701	-0.12011	-0.27481	1.7777	0.01141	-0.38162	1.6659	-0.058447	-0.50349	1.4333	-0.066752	-0.26243	1.5591	-0.047019	-0.25871	1.3993	-0.045574	-0.47359	1.5969	0.018839	-0.32105	1.5964	-0.25582	-0.31628	1.4107	-0.27719	-0.37474	1.428	-0.31421	-0.34938	1.3797	-0.3133	-0.40514	1.255	-0.34312	-0.32203	1.1629	-0.34671	-0.388	1.1457	-0.36471	-0.33874	1.1107	-0.36666	-0.2758	1.0183	-0.31077	-0.33347	1.0064	-0.36023	-0.27377	0.94365	-0.36777	-0.35009	1.6087	0.15165	-0.38045	1.4259	0.18036	-0.44014	1.4589	0.19991	-0.43053	1.4	0.20914	-0.48079	1.2917	0.24162	-0.42548	1.2219	0.25869	-0.49411	1.2065	0.26124	-0.45062	1.1696	0.27184	-0.36661	1.0466	0.23134	-0.41657	1.0322	0.28912	-0.34369	0.99557	0.30549	-0.32597	1.1595	-0.14131	-0.3419	1.1878	0.063999	-0.52119	1.2041	-0.055292	-0.52246	1.2214	-0.013627	-0.51214	1.2102	-0.10697	-0.36002	0.87401	-0.21286	-0.46715	0.86795	-0.21282	-0.40974	0.7942	-0.21334	-0.43042	0.65412	-0.18926	-0.48226	0.43021	-0.20288	-0.55035	0.44214	-0.20991	-0.52326	0.39138	-0.20164	-0.55988	0.23544	-0.18718	-0.61589	0.21582	-0.14708	-0.41438	0.1959	-0.17046	-0.50262	0.19199	-0.19463	-0.26087	1.066	0.13874	-0.33557	0.98281	0.15378	-0.24211	0.97661	0.16065	-0.099021	0.82227	0.13784	-0.13125	0.59545	0.13777	-0.19765	0.62023	0.15192	-0.18494	0.56051	0.14758	-0.23296	0.40611	0.13518	-0.27859	0.38576	0.081064	-0.093611	0.3653	0.15957	-0.18844	0.35906	0.15819	-0.383	1.2185	0.10369	-0.45671	1.2122	0.11053	-0.40622	1.1701	0.13994
168	1.68	-0.11017	1.7299	-0.10403	-0.12548	1.7403	0.047124	-0.25178	1.7704	-0.11722	-0.2694	1.7778	0.014397	-0.37589	1.6661	-0.055663	-0.49791	1.4338	-0.064052	-0.25684	1.5592	-0.044388	-0.25322	1.3993	-0.042828	-0.46792	1.5971	0.021676	-0.31557	1.5966	-0.25298	-0.31147	1.4108	-0.27425	-0.36992	1.4284	-0.31137	-0.3446	1.3801	-0.31069	-0.40103	1.2556	-0.34037	-0.31877	1.1627	-0.34438	-0.3851	1.1463	-0.36232	-0.33619	1.1106	-0.3645	-0.27445	1.0168	-0.30859	-0.33216	1.0063	-0.35854	-0.2733	0.94283	-0.3665	-0.34451	1.6087	0.15458	-0.37522	1.4257	0.18279	-0.43441	1.4587	0.20269	-0.42487	1.3998	0.21163	-0.47554	1.2914	0.24366	-0.42038	1.2215	0.26085	-0.48906	1.2065	0.26298	-0.44578	1.1692	0.27419	-0.36356	1.0454	0.23418	-0.41236	1.0319	0.29146	-0.3398	0.99423	0.30717	-0.32094	1.1597	-0.13913	-0.33662	1.1878	0.066796	-0.51614	1.2046	-0.052763	-0.5174	1.2219	-0.011072	-0.50705	1.2105	-0.10438	-0.35584	0.87421	-0.21056	-0.46298	0.86828	-0.21089	-0.40581	0.79442	-0.21146	-0.42697	0.65455	-0.18773	-0.48027	0.43105	-0.20211	-0.54819	0.44357	-0.2094	-0.5216	0.39254	-0.20127	-0.55928	0.23691	-0.18756	-0.61568	0.21787	-0.14779	-0.4143	0.19589	-0.17043	-0.50234	0.19291	-0.19492	-0.2559	1.0642	0.14149	-0.3314	0.98146	0.15493	-0.23816	0.97446	0.16228	-0.095998	0.81942	0.13888	-0.12928	0.59244	0.13765	-0.19482	0.61769	0.15298	-0.18267	0.55751	0.14783	-0.23208	0.40402	0.13533	-0.27803	0.38335	0.081432	-0.091675	0.36423	0.15985	-0.18806	0.35837	0.15866	-0.37735	1.2186	0.10634	-0.4511	1.2123	0.11328	-0.40096	1.1702	0.14259
169	1.69	-0.10452	1.7306	-0.10099	-0.12009	1.7408	0.050434	-0.24629	1.7708	-0.11404	-0.26395	1.7782	0.017261	-0.37006	1.6666	-0.052613	-0.49246	1.4343	-0.061317	-0.25117	1.5594	-0.041325	-0.24764	1.3995	-0.040125	-0.46214	1.5976	0.02474	-0.30993	1.5969	-0.24992	-0.30644	1.4111	-0.27156	-0.36478	1.4293	-0.30863	-0.33981	1.3807	-0.30782	-0.3969	1.2565	-0.33743	-0.31565	1.1626	-0.3422	-0.38214	1.1471	-0.35986	-0.33377	1.1108	-0.36239	-0.27302	1.0158	-0.30658	-0.33085	1.0069	-0.3567	-0.27289	0.94233	-0.36531	-0.33873	1.6088	0.15752	-0.36961	1.4255	0.18528	-0.42892	1.4589	0.20522	-0.41912	1.3998	0.21416	-0.46993	1.2913	0.24625	-0.4153	1.2212	0.26344	-0.48391	1.2064	0.26572	-0.44102	1.169	0.27639	-0.35978	1.0447	0.2365	-0.40831	1.0315	0.29357	-0.33595	0.99354	0.30909	-0.31604	1.1598	-0.13633	-0.33147	1.1881	0.069376	-0.5111	1.2052	-0.049893	-0.51189	1.2224	-0.0084233	-0.50211	1.2111	-0.1014	-0.3516	0.87457	-0.20823	-0.45891	0.86879	-0.20917	-0.40182	0.79469	-0.20959	-0.42351	0.65499	-0.18608	-0.47824	0.43245	-0.2016	-0.54615	0.44505	-0.20885	-0.51984	0.39383	-0.20085	-0.55881	0.23856	-0.18791	-0.61513	0.21984	-0.14844	-0.41414	0.19586	-0.17049	-0.50201	0.19404	-0.1953	-0.25109	1.0624	0.14468	-0.32733	0.98048	0.1567	-0.23441	0.97193	0.16431	-0.09308	0.81626	0.13957	-0.12672	0.58945	0.1374	-0.19216	0.61493	0.15419	-0.18069	0.55484	0.14814	-0.23135	0.40186	0.13515	-0.27752	0.38125	0.08119	-0.090766	0.36371	0.15948	-0.18738	0.35673	0.15779	-0.37203	1.2188	0.10913	-0.44578	1.2126	0.11599	-0.3956	1.1701	0.1456
